<svg width="272" height="67" viewBox="0 0 272 67" fill="none" xmlns="http://www.w3.org/2000/svg">
<path d="M4.98867 30.5201C4.98867 30.9069 4.90005 31.273 4.74195 31.5995C4.18717 32.7448 3.11793 33.8167 3.11793 35.0886V39.2176C3.11793 39.9972 3.70495 40.6407 4.25813 41.1918C4.81127 41.7433 5.45691 42.3283 6.23919 42.3283H10.3822C11.6583 42.3283 12.7338 41.2627 13.8831 40.7096C14.2106 40.5523 14.578 40.4639 14.9661 40.4639C16.3437 40.4639 17.4604 41.5769 17.4604 42.9499C17.4604 44.3229 16.3437 45.4359 14.9661 45.4359C14.578 45.4359 14.2106 45.3475 13.8831 45.1898C12.7338 44.6371 11.6583 43.5711 10.3822 43.5711H7.07824C5.80212 43.5711 4.72661 44.6371 3.57735 45.1898C3.2498 45.3475 2.88242 45.4359 2.49434 45.4359C1.11676 45.4359 0 44.3229 0 42.9499C0 42.5628 0.0886248 42.1969 0.246739 41.8704C0.801519 40.7251 1.87076 39.6532 1.87076 38.3813V35.0886C1.87076 33.8167 0.801519 32.7448 0.246739 31.5995C0.0886248 31.273 0 30.9069 0 30.5201C0 29.1472 1.11676 28.0342 2.49434 28.0342C3.87194 28.0342 4.98867 29.1472 4.98867 30.5201Z" fill="#57B535"/>
<path d="M4.98867 30.5201C4.98867 30.9069 4.90005 31.273 4.74195 31.5995C4.18717 32.7448 3.11793 33.8167 3.11793 35.0886V39.2176C3.11793 39.9972 3.70495 40.6407 4.25813 41.1918C4.81127 41.7433 5.45691 42.3283 6.23919 42.3283H10.3822C11.6583 42.3283 12.7338 41.2627 13.8831 40.7096C14.2106 40.5523 14.578 40.4639 14.9661 40.4639C16.3437 40.4639 17.4604 41.5769 17.4604 42.9499C17.4604 44.3229 16.3437 45.4359 14.9661 45.4359C14.578 45.4359 14.2106 45.3475 13.8831 45.1898C12.7338 44.6371 11.6583 43.5711 10.3822 43.5711H7.07824C5.80212 43.5711 4.72661 44.6371 3.57735 45.1898C3.2498 45.3475 2.88242 45.4359 2.49434 45.4359C1.11676 45.4359 0 44.3229 0 42.9499C0 42.5628 0.0886248 42.1969 0.246739 41.8704C0.801519 40.7251 1.87076 39.6532 1.87076 38.3813V35.0886C1.87076 33.8167 0.801519 32.7448 0.246739 31.5995C0.0886248 31.273 0 30.9069 0 30.5201C0 29.1472 1.11676 28.0342 2.49434 28.0342C3.87194 28.0342 4.98867 29.1472 4.98867 30.5201Z" fill="#57B535"/>
<path d="M30.5345 21.5191C30.5345 21.1324 30.6231 20.7662 30.7813 20.4398C31.336 19.2944 32.4053 18.2225 32.4053 16.9507V12.8217C32.4053 12.042 31.8182 11.3986 31.2651 10.8473C30.7119 10.296 30.0663 9.71094 29.284 9.71094H25.141C23.8649 9.71094 22.7894 10.7766 21.6401 11.3295C21.3126 11.487 20.9452 11.5754 20.5571 11.5754C19.1795 11.5754 18.0627 10.4624 18.0627 9.08946C18.0627 7.71649 19.1795 6.60352 20.5571 6.60352C20.9452 6.60352 21.3126 6.69184 21.6401 6.84945C22.7894 7.40235 23.8649 8.46798 25.141 8.46798H28.4449C29.7211 8.46798 30.7966 7.40235 31.9459 6.84945C32.2734 6.69184 32.6408 6.60352 33.0288 6.60352C34.4064 6.60352 35.5232 7.71649 35.5232 9.08946C35.5232 9.47624 35.4346 9.84234 35.2764 10.1688C34.7217 11.3142 33.6524 12.3861 33.6524 13.6579V16.9507C33.6524 18.2225 34.7217 19.2944 35.2764 20.4398C35.4346 20.7662 35.5232 21.1324 35.5232 21.5191C35.5232 22.8921 34.4064 24.005 33.0288 24.005C31.6512 24.005 30.5345 22.8921 30.5345 21.5191Z" fill="#57B535"/>
<path d="M22.4489 37.9777C22.4489 38.3645 22.3603 38.7306 22.2022 39.057C21.6474 40.2025 20.5781 41.2744 20.5781 42.5463V46.6753C20.5781 47.455 21.1652 48.0984 21.7183 48.6496C22.2715 49.2007 22.9171 49.786 23.6994 49.786H27.8424C29.1185 49.786 30.194 48.7204 31.3433 48.1673C31.6708 48.0096 32.0382 47.9212 32.4263 47.9212C33.8039 47.9212 34.9206 49.0342 34.9206 50.4072C34.9206 51.7802 33.8039 52.8932 32.4263 52.8932C32.0382 52.8932 31.6708 52.8048 31.3433 52.6475C30.194 52.0944 29.1185 51.0288 27.8424 51.0288H24.5385C23.2623 51.0288 22.1868 52.0944 21.0375 52.6475C20.71 52.8048 20.3426 52.8932 19.9546 52.8932C18.577 52.8932 17.4602 51.7802 17.4602 50.4072C17.4602 50.0206 17.5488 49.6546 17.7069 49.3281C18.2617 48.1825 19.331 47.1109 19.331 45.839V42.5463C19.331 41.2744 18.2617 40.2025 17.7069 39.057C17.5488 38.7306 17.4602 38.3645 17.4602 37.9777C17.4602 36.6047 18.577 35.4918 19.9546 35.4918C21.3321 35.4918 22.4489 36.6047 22.4489 37.9777Z" fill="#57B535"/>
<path d="M42.4038 42.9499C42.4038 43.3366 42.3151 43.7025 42.1569 44.029C41.6023 45.1747 40.5331 46.2462 40.5331 47.5181V51.6471C40.5331 52.4268 41.1201 53.0703 41.6731 53.6218C42.2264 54.1729 42.8721 54.7579 43.6544 54.7579H47.7974C49.0735 54.7579 50.1487 53.6923 51.2982 53.1396C51.6259 52.9819 51.9931 52.8935 52.381 52.8935C53.7587 52.8935 54.8754 54.0064 54.8754 55.3795C54.8754 56.7525 53.7587 57.8654 52.381 57.8654C51.9931 57.8654 51.6259 57.777 51.2982 57.6193C50.1487 57.0666 49.0735 56.001 47.7974 56.001H44.4935C43.2173 56.001 42.1417 57.0666 40.9922 57.6193C40.665 57.777 40.2974 57.8654 39.9094 57.8654C38.5318 57.8654 37.415 56.7525 37.415 55.3795C37.415 54.9928 37.5037 54.6264 37.6618 54.3003C38.2166 53.1547 39.2858 52.0827 39.2858 50.8109V47.5181C39.2858 46.2462 38.2166 45.1747 37.6618 44.029C37.5037 43.7025 37.415 43.3366 37.415 42.9499C37.415 41.5769 38.5318 40.4639 39.9094 40.4639C41.2871 40.4639 42.4038 41.5769 42.4038 42.9499Z" fill="#5C34FA"/>
<path d="M62.3589 51.3695C62.3589 51.7566 62.2702 52.1225 62.112 52.4491C61.5574 53.5943 60.4882 54.6663 60.4882 55.9381V60.0671C60.4882 60.8468 61.0752 61.4903 61.6281 62.0414C62.1815 62.5929 62.8272 63.1779 63.6095 63.1779H67.7524C69.0286 63.1779 70.1038 62.1123 71.2533 61.5596C71.5809 61.4019 71.9481 61.3135 72.3361 61.3135C73.7137 61.3135 74.8305 62.4264 74.8305 63.7995C74.8305 65.1725 73.7137 66.2854 72.3361 66.2854C71.9481 66.2854 71.5809 66.197 71.2533 66.0393C70.1038 65.4866 69.0286 64.4211 67.7524 64.4211H64.4486C63.1724 64.4211 62.0968 65.4866 60.9477 66.0393C60.6201 66.197 60.2525 66.2854 59.8645 66.2854C58.4869 66.2854 57.3701 65.1725 57.3701 63.7995C57.3701 63.4128 57.4588 63.0465 57.617 62.7199C58.1716 61.5747 59.2408 60.5027 59.2408 59.2309V55.9381C59.2408 54.6663 58.1716 53.5943 57.617 52.4491C57.4588 52.1225 57.3701 51.7566 57.3701 51.3695C57.3701 49.9969 58.4869 48.8839 59.8645 48.8839C61.2422 48.8839 62.3589 49.9969 62.3589 51.3695Z" fill="#4F3F84"/>
<path d="M19.9546 25.548C19.5665 25.548 19.1992 25.4596 18.8716 25.3021C17.7224 24.7492 16.6469 23.6835 15.3707 23.6835H11.2277C10.4454 23.6835 9.79984 24.2686 9.24666 24.8198C8.69348 25.3712 8.10646 26.0146 8.10646 26.7943V30.9233C8.10646 32.1951 9.1757 33.267 9.73048 34.4124C9.88862 34.7388 9.97724 35.105 9.97724 35.4917C9.97724 36.8647 8.86049 37.9776 7.48288 37.9776C6.10531 37.9776 4.98853 36.8647 4.98853 35.4917C4.98853 35.105 5.07715 34.7388 5.23529 34.4124C5.79006 33.267 6.8593 32.1951 6.8593 30.9233V27.6305C6.8593 26.3587 5.79006 25.2868 5.23529 24.1414C5.07715 23.8149 4.98853 23.4488 4.98853 23.0621C4.98853 21.6891 6.10531 20.5761 7.48288 20.5761C7.87097 20.5761 8.23835 20.6644 8.5659 20.822C9.71513 21.3749 10.7906 22.4406 12.0668 22.4406H15.3707C16.6469 22.4406 17.7224 21.3749 18.8716 20.822C19.1992 20.6644 19.5665 20.5761 19.9546 20.5761C21.3322 20.5761 22.449 21.6891 22.449 23.0621C22.449 24.435 21.3322 25.548 19.9546 25.548Z" fill="#57B535"/>
<path d="M19.9546 25.548C19.5665 25.548 19.1992 25.4596 18.8716 25.3021C17.7224 24.7492 16.6469 23.6835 15.3707 23.6835H11.2277C10.4454 23.6835 9.79984 24.2686 9.24666 24.8198C8.69348 25.3712 8.10646 26.0146 8.10646 26.7943V30.9233C8.10646 32.1951 9.1757 33.267 9.73048 34.4124C9.88862 34.7388 9.97724 35.105 9.97724 35.4917C9.97724 36.8647 8.86049 37.9776 7.48288 37.9776C6.10531 37.9776 4.98853 36.8647 4.98853 35.4917C4.98853 35.105 5.07715 34.7388 5.23529 34.4124C5.79006 33.267 6.8593 32.1951 6.8593 30.9233V27.6305C6.8593 26.3587 5.79006 25.2868 5.23529 24.1414C5.07715 23.8149 4.98853 23.4488 4.98853 23.0621C4.98853 21.6891 6.10531 20.5761 7.48288 20.5761C7.87097 20.5761 8.23835 20.6644 8.5659 20.822C9.71513 21.3749 10.7906 22.4406 12.0668 22.4406H15.3707C16.6469 22.4406 17.7224 21.3749 18.8716 20.822C19.1992 20.6644 19.5665 20.5761 19.9546 20.5761C21.3322 20.5761 22.449 21.6891 22.449 23.0621C22.449 24.435 21.3322 25.548 19.9546 25.548Z" fill="#E1D3C1"/>
<path d="M45.0702 11.5754C44.6823 11.5754 44.3147 11.487 43.9874 11.3295C42.8379 10.7766 41.7627 9.7109 40.4866 9.7109H36.3434C35.5612 9.7109 34.9155 10.296 34.3623 10.8473C33.8092 11.3986 33.2222 12.042 33.2222 12.8217V16.9506C33.2222 18.2225 34.2914 19.2944 34.8462 20.4398C35.0043 20.7662 35.0929 21.1323 35.0929 21.5191C35.0929 22.892 33.9762 24.005 32.5986 24.005C31.221 24.005 30.1042 22.892 30.1042 21.5191C30.1042 21.1323 30.1929 20.7662 30.351 20.4398C30.9057 19.2944 31.975 18.2225 31.975 16.9506V13.6579C31.975 12.386 30.9057 11.3142 30.351 10.1688C30.1929 9.84234 30.1042 9.4762 30.1042 9.08942C30.1042 7.71649 31.221 6.60352 32.5986 6.60352C32.9866 6.60352 33.354 6.69184 33.6816 6.84941C34.8309 7.40231 35.9063 8.46794 37.1825 8.46794H40.4866C41.7627 8.46794 42.8379 7.40231 43.9874 6.84941C44.3147 6.69184 44.6823 6.60352 45.0702 6.60352C46.4479 6.60352 47.5646 7.71649 47.5646 9.08942C47.5646 10.4624 46.4479 11.5754 45.0702 11.5754Z" fill="#57B535"/>
<path d="M75.7959 48.884C76.1843 48.884 76.5515 48.972 76.8791 49.1297C78.0282 49.6828 79.1038 50.7484 80.38 50.7484H84.5229C85.3052 50.7484 85.9509 50.1634 86.5039 49.6119C87.0573 49.0608 87.6442 48.4173 87.6442 47.6376V43.5086C87.6442 42.2368 86.575 41.1648 86.02 40.0196C85.8622 39.6931 85.7735 39.3269 85.7735 38.9401C85.7735 37.5672 86.8902 36.4542 88.2679 36.4542C89.6455 36.4542 90.7623 37.5672 90.7623 38.9401C90.7623 39.3269 90.6736 39.6931 90.5154 40.0196C89.9608 41.1648 88.8912 42.2368 88.8912 43.5086V46.8014C88.8912 48.0733 89.9608 49.1452 90.5154 50.2905C90.6736 50.617 90.7623 50.9829 90.7623 51.37C90.7623 52.7426 89.6455 53.8556 88.2679 53.8556C87.8795 53.8556 87.5123 53.7676 87.1847 53.6099C86.0356 53.0568 84.96 51.9912 83.6838 51.9912H80.38C79.1038 51.9912 78.0282 53.0568 76.8791 53.6099C76.5515 53.7676 76.1843 53.8556 75.7959 53.8556C74.4187 53.8556 73.3015 52.7426 73.3015 51.37C73.3015 49.997 74.4187 48.884 75.7959 48.884Z" fill="#4F3F84"/>
<path d="M28.8927 18.2975C28.8927 18.7807 28.765 19.2341 28.5414 19.6262C27.9109 20.732 26.866 21.7948 26.866 23.0666V27.7197C26.866 28.5644 27.502 29.2614 28.1012 29.8587C28.7005 30.4559 29.3999 31.0897 30.2474 31.0897H34.9163C36.1924 31.0897 37.2588 30.0484 38.3683 29.42C38.7617 29.1972 39.2167 29.0699 39.7015 29.0699C41.1939 29.0699 42.4038 30.2757 42.4038 31.763C42.4038 33.2504 41.1939 34.4561 39.7015 34.4561C39.2167 34.4561 38.7617 34.3288 38.3683 34.106C37.2588 33.4776 36.1924 32.4363 34.9163 32.4363H30.9757C29.6995 32.4363 28.6332 33.4776 27.5237 34.106C27.1303 34.3288 26.6753 34.4561 26.1905 34.4561C24.6981 34.4561 23.4883 33.2504 23.4883 31.763C23.4883 31.2798 23.6159 30.8263 23.8395 30.4343C24.4701 29.3285 25.5149 28.2658 25.5149 26.9939V23.0666C25.5149 21.7948 24.4701 20.732 23.8395 19.6262C23.6159 19.2341 23.4883 18.7807 23.4883 18.2975C23.4883 16.8102 24.6981 15.6044 26.1905 15.6044C27.6829 15.6044 28.8927 16.8102 28.8927 18.2975Z" fill="#57B535"/>
<path d="M23.4886 45.2288C23.4886 44.7454 23.6163 44.2918 23.8398 43.9C24.4704 42.7942 25.5152 41.7314 25.5152 40.4595V35.8064C25.5152 34.9618 24.8793 34.2647 24.2801 33.6675C23.6808 33.0702 22.9814 32.4364 22.1339 32.4364H17.465C16.1888 32.4364 15.1225 33.4778 14.013 34.1062C13.6196 34.329 13.1646 34.4563 12.6798 34.4563C11.1874 34.4563 9.97754 33.2505 9.97754 31.7631C9.97754 30.2758 11.1874 29.07 12.6798 29.07C13.1646 29.07 13.6196 29.1973 14.013 29.4201C15.1225 30.0485 16.1888 31.0899 17.465 31.0899H21.4056C22.6817 31.0899 23.7481 30.0485 24.8576 29.4201C25.251 29.1973 25.706 29.07 26.1908 29.07C27.6832 29.07 28.893 30.2758 28.893 31.7631C28.893 32.2463 28.7653 32.6998 28.5418 33.0919C27.9112 34.1976 26.8664 35.2604 26.8664 36.5323V40.4595C26.8664 41.7314 27.9112 42.7942 28.5418 43.9C28.7653 44.2918 28.893 44.7454 28.893 45.2288C28.893 46.7161 27.6832 47.9219 26.1908 47.9219C24.6984 47.9219 23.4886 46.7161 23.4886 45.2288Z" fill="#57B535"/>
<path d="M39.7015 34.4562C39.2167 34.4562 38.7617 34.329 38.3684 34.1062C37.2588 33.4778 36.1925 32.4364 34.9163 32.4364H30.2474C29.4 32.4364 28.7005 33.0702 28.1013 33.6674C27.502 34.2647 26.866 34.9617 26.866 35.8064V40.4595C26.866 41.7314 27.9109 42.7942 28.5415 43.9C28.765 44.2918 28.8927 44.7454 28.8927 45.2284C28.8927 46.7161 27.6829 47.9219 26.1905 47.9219C24.6981 47.9219 23.4883 46.7161 23.4883 45.2284C23.4883 44.7454 23.616 44.2918 23.8396 43.9C24.4701 42.7942 25.515 41.7314 25.515 40.4595V36.5322C25.515 35.2604 24.4701 34.1976 23.8396 33.0919C23.616 32.6998 23.4883 32.2463 23.4883 31.7631C23.4883 30.2758 24.6981 29.07 26.1905 29.07C26.6753 29.07 27.1303 29.1973 27.5237 29.4201C28.6332 30.0485 29.6996 31.0898 30.9757 31.0898H34.9163C36.1925 31.0898 37.2588 30.0485 38.3684 29.4201C38.7617 29.1973 39.2167 29.07 39.7015 29.07C41.194 29.07 42.4038 30.2758 42.4038 31.7631C42.4038 33.2505 41.194 34.4562 39.7015 34.4562Z" fill="#57B535"/>
<path d="M48.8477 23.2692C48.8477 23.7524 48.7202 24.2059 48.4965 24.5979C47.866 25.7037 46.8212 26.7664 46.8212 28.0383V32.6915C46.8212 33.5361 47.4572 34.2331 48.0562 34.8304C48.6555 35.4276 49.3551 36.0614 50.2026 36.0614H54.8713C56.1475 36.0614 57.2139 35.0201 58.3234 34.3917C58.7166 34.1688 59.1717 34.0416 59.6567 34.0416C61.1491 34.0416 62.3589 35.2473 62.3589 36.7347C62.3589 38.222 61.1491 39.4278 59.6567 39.4278C59.1717 39.4278 58.7166 39.3005 58.3234 39.0777C57.2139 38.4493 56.1475 37.408 54.8713 37.408H50.9309C49.6548 37.408 48.5884 38.4493 47.4788 39.0777C47.0853 39.3005 46.6306 39.4278 46.1455 39.4278C44.6532 39.4278 43.4434 38.222 43.4434 36.7347C43.4434 36.2515 43.5712 35.798 43.7946 35.406C44.4251 34.3002 45.4699 33.2374 45.4699 31.9656V28.0383C45.4699 26.7664 44.4251 25.7037 43.7946 24.5979C43.5712 24.2059 43.4434 23.7524 43.4434 23.2692C43.4434 21.7818 44.6532 20.5761 46.1455 20.5761C47.6378 20.5761 48.8477 21.7818 48.8477 23.2692Z" fill="#5C34FA"/>
<path d="M43.4432 50.2003C43.4432 49.7172 43.5706 49.2637 43.7944 48.8714C44.4249 47.766 45.4697 46.7032 45.4697 45.4314V40.778C45.4697 39.9334 44.834 39.2364 44.2347 38.6391C43.6354 38.0419 42.9358 37.4081 42.0883 37.4081H37.4196C36.1434 37.4081 35.077 38.4495 33.9676 39.0779C33.5742 39.3007 33.1191 39.4279 32.6343 39.4279C31.1419 39.4279 29.9321 38.2222 29.9321 36.7348C29.9321 35.2475 31.1419 34.0417 32.6343 34.0417C33.1191 34.0417 33.5742 34.169 33.9676 34.3918C35.077 35.0202 36.1434 36.0616 37.4196 36.0616H41.3603C42.6365 36.0616 43.7025 35.0202 44.812 34.3918C45.2056 34.169 45.6607 34.0417 46.1454 34.0417C47.6377 34.0417 48.8475 35.2475 48.8475 36.7348C48.8475 37.218 48.7201 37.6715 48.4963 38.0636C47.8658 39.1693 46.821 40.232 46.821 41.5039V45.4314C46.821 46.7032 47.8658 47.766 48.4963 48.8714C48.7201 49.2637 48.8475 49.7172 48.8475 50.2003C48.8475 51.6875 47.6377 52.8933 46.1454 52.8933C44.653 52.8933 43.4432 51.6875 43.4432 50.2003Z" fill="#5C34FA"/>
<path d="M59.6567 39.428C59.1717 39.428 58.7166 39.3007 58.3234 39.0779C57.2139 38.4495 56.1475 37.4081 54.8713 37.4081H50.2026C49.3551 37.4081 48.6555 38.0419 48.0562 38.6392C47.4572 39.2364 46.8212 39.9334 46.8212 40.778V45.4314C46.8212 46.7033 47.866 47.7657 48.4965 48.8715C48.7202 49.2637 48.8477 49.7173 48.8477 50.2003C48.8477 51.6876 47.6378 52.8933 46.1455 52.8933C44.6532 52.8933 43.4434 51.6876 43.4434 50.2003C43.4434 49.7173 43.5712 49.2637 43.7946 48.8715C44.4251 47.7657 45.4699 46.7033 45.4699 45.4314V41.5039C45.4699 40.2321 44.4251 39.1693 43.7946 38.0636C43.5712 37.6715 43.4434 37.2181 43.4434 36.7348C43.4434 35.2475 44.6532 34.0417 46.1455 34.0417C46.6306 34.0417 47.0853 34.169 47.4788 34.3918C48.5884 35.0203 49.6548 36.0616 50.9309 36.0616H54.8713C56.1475 36.0616 57.2139 35.0203 58.3234 34.3918C58.7166 34.169 59.1717 34.0417 59.6567 34.0417C61.1491 34.0417 62.3589 35.2475 62.3589 36.7348C62.3589 38.2222 61.1491 39.428 59.6567 39.428Z" fill="#5C34FA"/>
<path d="M68.8023 31.6892C68.8023 32.1724 68.6748 32.6259 68.4511 33.0179C67.8206 34.1237 66.7758 35.1865 66.7758 36.4583V41.1117C66.7758 41.9563 67.4118 42.6531 68.0108 43.2504C68.6101 43.8477 69.3097 44.4813 70.1571 44.4813H74.8259C76.1021 44.4813 77.1685 43.44 78.278 42.8116C78.6716 42.589 79.1263 42.4616 79.6113 42.4616C81.1036 42.4616 82.3135 43.6673 82.3135 45.1546C82.3135 46.6419 81.1036 47.8477 79.6113 47.8477C79.1263 47.8477 78.6716 47.7206 78.278 47.4977C77.1685 46.8693 76.1021 45.828 74.8259 45.828H70.8855C69.6094 45.828 68.543 46.8693 67.4334 47.4977C67.0399 47.7206 66.5852 47.8477 66.1001 47.8477C64.6078 47.8477 63.3979 46.6419 63.3979 45.1546C63.3979 44.6716 63.5258 44.2181 63.7492 43.8258C64.3796 42.7204 65.4245 41.6576 65.4245 40.3857V36.4583C65.4245 35.1865 64.3796 34.1237 63.7492 33.0179C63.5258 32.6259 63.3979 32.1724 63.3979 31.6892C63.3979 30.2019 64.6078 28.9961 66.1001 28.9961C67.5924 28.9961 68.8023 30.2019 68.8023 31.6892Z" fill="#4F3F84"/>
<path d="M63.3979 58.6204C63.3979 58.137 63.5258 57.6839 63.7491 57.2916C64.3796 56.1858 65.4245 55.123 65.4245 53.8512V49.1981C65.4245 48.3536 64.7888 47.6563 64.1894 47.059C63.5901 46.4621 62.8909 45.8281 62.0431 45.8281H57.3743C56.0981 45.8281 55.0317 46.8695 53.9222 47.4978C53.529 47.7208 53.0739 47.8478 52.5893 47.8478C51.0966 47.8478 49.8867 46.6421 49.8867 45.1548C49.8867 43.6675 51.0966 42.4617 52.5893 42.4617C53.0739 42.4617 53.529 42.5892 53.9222 42.8118C55.0317 43.4401 56.0981 44.4814 57.3743 44.4814H61.3151C62.5912 44.4814 63.6572 43.4401 64.7668 42.8118C65.1603 42.5892 65.6154 42.4617 66.1001 42.4617C67.5924 42.4617 68.8023 43.6675 68.8023 45.1548C68.8023 45.6382 68.6748 46.0914 68.451 46.4836C67.8206 47.5894 66.7757 48.6522 66.7757 49.9241V53.8512C66.7757 55.123 67.8206 56.1858 68.451 57.2916C68.6748 57.6839 68.8023 58.137 68.8023 58.6204C68.8023 60.1077 67.5924 61.3135 66.1001 61.3135C64.6078 61.3135 63.3979 60.1077 63.3979 58.6204Z" fill="#4F3F84"/>
<path d="M79.6113 47.8478C79.1263 47.8478 78.6716 47.7208 78.278 47.4978C77.1685 46.8695 76.1021 45.8281 74.8259 45.8281H70.1571C69.3097 45.8281 68.6101 46.4621 68.0108 47.059C67.4118 47.6563 66.7758 48.3536 66.7758 49.1981V53.8512C66.7758 55.123 67.8206 56.1858 68.4511 57.2916C68.6748 57.6839 68.8023 58.137 68.8023 58.6204C68.8023 60.1077 67.5924 61.3135 66.1001 61.3135C64.6078 61.3135 63.3979 60.1077 63.3979 58.6204C63.3979 58.137 63.5258 57.6839 63.7492 57.2916C64.3796 56.1858 65.4245 55.123 65.4245 53.8512V49.9241C65.4245 48.6522 64.3796 47.5894 63.7492 46.4836C63.5258 46.0914 63.3979 45.6382 63.3979 45.1548C63.3979 43.6675 64.6078 42.4617 66.1001 42.4617C66.5852 42.4617 67.0399 42.5892 67.4334 42.8118C68.543 43.4401 69.6094 44.4814 70.8855 44.4814H74.8259C76.1021 44.4814 77.1685 43.4401 78.278 42.8118C78.6716 42.5892 79.1263 42.4617 79.6113 42.4617C81.1036 42.4617 82.3135 43.6675 82.3135 45.1548C82.3135 46.6421 81.1036 47.8478 79.6113 47.8478Z" fill="#4F3F84"/>
<path d="M76.1133 9.29661C76.1133 9.77979 75.9858 10.2333 75.7621 10.6253C75.1316 11.7311 74.0868 12.7938 74.0868 14.0657V18.7188C74.0868 19.5634 74.7229 20.2605 75.3218 20.8578C75.9211 21.455 76.6207 22.0888 77.4682 22.0888H82.1369C83.4131 22.0888 84.4795 21.0475 85.589 20.419C85.9826 20.1962 86.4373 20.069 86.9223 20.069C88.4147 20.069 89.6245 21.2747 89.6245 22.7621C89.6245 24.2494 88.4147 25.4551 86.9223 25.4551C86.4373 25.4551 85.9826 25.3279 85.589 25.1051C84.4795 24.4767 83.4131 23.4353 82.1369 23.4353H78.1966C76.9204 23.4353 75.854 24.4767 74.7444 25.1051C74.3509 25.3279 73.8962 25.4551 73.4111 25.4551C71.9188 25.4551 70.709 24.2494 70.709 22.7621C70.709 22.2789 70.8368 21.8254 71.0602 21.4334C71.6907 20.3276 72.7355 19.2648 72.7355 17.993V14.0657C72.7355 12.7938 71.6907 11.7311 71.0602 10.6253C70.8368 10.2333 70.709 9.77979 70.709 9.29661C70.709 7.80924 71.9188 6.60352 73.4111 6.60352C74.9035 6.60352 76.1133 7.80924 76.1133 9.29661Z" fill="#5C34FA"/>
<path d="M70.7092 36.2277C70.7092 35.7445 70.8371 35.291 71.0604 34.899C71.6909 33.7932 72.7357 32.7304 72.7357 31.4586V26.8054C72.7357 25.9608 72.1 25.2637 71.5007 24.6665C70.9014 24.0693 70.2022 23.4355 69.3543 23.4355H64.6856C63.4094 23.4355 62.343 24.4768 61.2335 25.1052C60.8403 25.328 60.3852 25.4553 59.9006 25.4553C58.4078 25.4553 57.198 24.2495 57.198 22.7622C57.198 21.2748 58.4078 20.0691 59.9006 20.0691C60.3852 20.0691 60.8403 20.1963 61.2335 20.4192C62.343 21.0476 63.4094 22.0889 64.6856 22.0889H68.6264C69.9025 22.0889 70.9689 21.0476 72.0781 20.4192C72.4716 20.1963 72.9267 20.0691 73.4114 20.0691C74.9037 20.0691 76.1135 21.2748 76.1135 22.7622C76.1135 23.2454 75.9861 23.6989 75.7623 24.0909C75.1318 25.1967 74.087 26.2594 74.087 27.5313V31.4586C74.087 32.7304 75.1318 33.7932 75.7623 34.899C75.9861 35.291 76.1135 35.7445 76.1135 36.2277C76.1135 37.715 74.9037 38.9208 73.4114 38.9208C71.919 38.9208 70.7092 37.715 70.7092 36.2277Z" fill="#5C34FA"/>
<path d="M86.9223 25.4553C86.4373 25.4553 85.9826 25.3281 85.589 25.1052C84.4795 24.4768 83.4131 23.4355 82.1369 23.4355H77.4682C76.6207 23.4355 75.9211 24.0693 75.3218 24.6665C74.7229 25.2638 74.0868 25.9608 74.0868 26.8055V31.4586C74.0868 32.7304 75.1316 33.7932 75.7621 34.899C75.9858 35.2911 76.1133 35.7445 76.1133 36.2277C76.1133 37.715 74.9035 38.9208 73.4111 38.9208C71.9188 38.9208 70.709 37.715 70.709 36.2277C70.709 35.7445 70.8368 35.2911 71.0602 34.899C71.6907 33.7932 72.7355 32.7304 72.7355 31.4586V27.5313C72.7355 26.2594 71.6907 25.1967 71.0602 24.0909C70.8368 23.6989 70.709 23.2454 70.709 22.7622C70.709 21.2748 71.9188 20.0691 73.4111 20.0691C73.8962 20.0691 74.3509 20.1963 74.7444 20.4192C75.854 21.0476 76.9204 22.0889 78.1966 22.0889H82.1369C83.4131 22.0889 84.4795 21.0476 85.589 20.4192C85.9826 20.1963 86.4373 20.0691 86.9223 20.0691C88.4147 20.0691 89.6245 21.2748 89.6245 22.7622C89.6245 24.2496 88.4147 25.4553 86.9223 25.4553Z" fill="#5C34FA"/>
<path d="M55.0406 3.2963C55.0406 3.77949 54.9127 4.23296 54.6893 4.62503C54.0589 5.73076 53.0136 6.79353 53.0136 8.06539V12.7186C53.0136 13.5632 53.6497 14.2602 54.249 14.8575C54.8484 15.4547 55.5476 16.0885 56.395 16.0885H61.0642C62.3403 16.0885 63.4068 15.0472 64.5159 14.4188C64.9095 14.1959 65.3646 14.0687 65.8492 14.0687C67.3415 14.0687 68.5514 15.2744 68.5514 16.7618C68.5514 18.2491 67.3415 19.4549 65.8492 19.4549C65.3646 19.4549 64.9095 19.3276 64.5159 19.1048C63.4068 18.4764 62.3403 17.435 61.0642 17.435H57.1234C55.8472 17.435 54.7808 18.4764 53.6713 19.1048C53.2781 19.3276 52.823 19.4549 52.3384 19.4549C50.8461 19.4549 49.6362 18.2491 49.6362 16.7618C49.6362 16.2786 49.7637 15.8251 49.9874 15.4331C50.6179 14.3273 51.6627 13.2645 51.6627 11.9927V8.06539C51.6627 6.79353 50.6179 5.73076 49.9874 4.62503C49.7637 4.23296 49.6362 3.77949 49.6362 3.2963C49.6362 1.80895 50.8461 0.60321 52.3384 0.60321C53.8307 0.60321 55.0406 1.80895 55.0406 3.2963Z" fill="#0FBDE9"/>
<path d="M49.6362 30.2269C49.6362 29.7437 49.7637 29.2903 49.9874 28.8982C50.6179 27.7924 51.6627 26.7297 51.6627 25.4578V20.8047C51.6627 19.9601 51.0267 19.263 50.4273 18.6657C49.8284 18.0685 49.1288 17.4347 48.2813 17.4347H43.6126C42.3364 17.4347 41.27 18.4761 40.1605 19.1045C39.767 19.3273 39.312 19.4545 38.8272 19.4545C37.3348 19.4545 36.125 18.2488 36.125 16.7614C36.125 15.2741 37.3348 14.0684 38.8272 14.0684C39.312 14.0684 39.767 14.1956 40.1605 14.4184C41.27 15.0468 42.3364 16.0882 43.6126 16.0882H47.553C48.8291 16.0882 49.8955 15.0468 51.0051 14.4184C51.3982 14.1956 51.8533 14.0684 52.3384 14.0684C53.8307 14.0684 55.0405 15.2741 55.0405 16.7614C55.0405 17.2446 54.9127 17.6981 54.6893 18.0902C54.0588 19.1959 53.0136 20.2587 53.0136 21.5305V25.4578C53.0136 26.7297 54.0588 27.7924 54.6893 28.8982C54.9127 29.2903 55.0405 29.7437 55.0405 30.2269C55.0405 31.7143 53.8307 32.92 52.3384 32.92C50.8457 32.92 49.6362 31.7143 49.6362 30.2269Z" fill="#0FBDE9"/>
<path d="M65.8492 19.4546C65.3646 19.4546 64.9095 19.3273 64.5159 19.1045C63.4068 18.4761 62.3403 17.4347 61.0642 17.4347H56.395C55.5476 17.4347 54.8484 18.0685 54.249 18.6658C53.6497 19.263 53.0136 19.9601 53.0136 20.8047V25.4579C53.0136 26.7297 54.0589 27.7925 54.6893 28.8982C54.9127 29.2903 55.0406 29.7438 55.0406 30.2269C55.0406 31.7143 53.8307 32.92 52.3384 32.92C50.8461 32.92 49.6362 31.7143 49.6362 30.2269C49.6362 29.7438 49.7637 29.2903 49.9874 28.8982C50.6179 27.7925 51.6627 26.7297 51.6627 25.4579V21.5305C51.6627 20.2587 50.6179 19.1959 49.9874 18.0902C49.7637 17.6981 49.6362 17.2446 49.6362 16.7615C49.6362 15.2741 50.8461 14.0684 52.3384 14.0684C52.823 14.0684 53.2781 14.1956 53.6713 14.4184C54.7808 15.0469 55.8472 16.0882 57.1234 16.0882H61.0642C62.3403 16.0882 63.4068 15.0469 64.5159 14.4184C64.9095 14.1956 65.3646 14.0684 65.8492 14.0684C67.3415 14.0684 68.5514 15.2741 68.5514 16.7615C68.5514 18.2488 67.3415 19.4546 65.8492 19.4546Z" fill="#0FBDE9"/>
<path d="M83.2067 65.124C85.5952 65.124 87.5314 63.1943 87.5314 60.814C87.5314 58.4336 85.5952 56.5039 83.2067 56.5039C80.8183 56.5039 78.8821 58.4336 78.8821 60.814C78.8821 63.1943 80.8183 65.124 83.2067 65.124Z" fill="#E1D3C1"/>
<path d="M80.7653 17.5761C82.1429 17.5761 83.2597 16.4631 83.2597 15.0902C83.2597 13.7172 82.1429 12.6042 80.7653 12.6042C79.3878 12.6042 78.271 13.7172 78.271 15.0902C78.271 16.4631 79.3878 17.5761 80.7653 17.5761Z" fill="#0FBDE9"/>
<path d="M59.6924 11.5754C61.0699 11.5754 62.1867 10.4624 62.1867 9.08945C62.1867 7.71651 61.0699 6.60352 59.6924 6.60352C58.3148 6.60352 57.198 7.71651 57.198 9.08945C57.198 10.4624 58.3148 11.5754 59.6924 11.5754Z" fill="#57B535"/>
<path d="M59.6924 11.5754C61.0699 11.5754 62.1867 10.4624 62.1867 9.08945C62.1867 7.71651 61.0699 6.60352 59.6924 6.60352C58.3148 6.60352 57.198 7.71651 57.198 9.08945C57.198 10.4624 58.3148 11.5754 59.6924 11.5754Z" fill="#0FBDE9"/>
<path d="M92.8829 31.4096C92.8829 30.0343 91.7642 28.9193 90.3841 28.9193C89.7153 28.9193 89.1079 29.1811 88.6596 29.6074C88.6285 29.6324 88.5969 29.6576 88.5654 29.6828C87.8933 30.2211 87.1801 30.7924 86.339 30.7924H81.966C81.1249 30.7924 80.4117 30.2211 79.7397 29.6829C79.643 29.6056 79.5475 29.529 79.4524 29.4549C79.0293 29.1247 78.4959 28.9279 77.9165 28.9279C76.5389 28.9279 75.4221 30.0409 75.4221 31.4138C75.4221 32.7868 76.5389 33.8998 77.9165 33.8998C78.4959 33.8998 79.0293 33.703 79.4524 33.3728C79.5475 33.2987 79.643 33.2221 79.7397 33.1449C80.4117 32.6065 81.1249 32.0353 81.966 32.0353H86.339C87.1797 32.0353 87.8933 32.6065 88.5654 33.1449C88.6213 33.1897 88.6772 33.2344 88.7328 33.2784C89.1731 33.6652 89.7512 33.8998 90.3841 33.8998C91.7634 33.8998 92.8817 32.7839 92.8829 31.4096Z" fill="#5C34FA"/>
<path d="M14.5404 17.5847C15.9204 17.5847 17.039 16.4698 17.039 15.0945C17.039 13.7192 15.9204 12.6042 14.5404 12.6042C13.1604 12.6042 12.0417 13.7192 12.0417 15.0945C12.0417 16.4698 13.1604 17.5847 14.5404 17.5847Z" fill="#E1D3C1"/>
<path d="M39.444 4.98044C40.8239 4.98044 41.9426 3.86553 41.9426 2.49022C41.9426 1.11491 40.8239 0 39.444 0C38.064 0 36.9453 1.11491 36.9453 2.49022C36.9453 3.86553 38.064 4.98044 39.444 4.98044Z" fill="#57B535"/>
<path d="M110.598 18.5515H111.885V36.2413H110.598V18.5515Z" fill="#E1D3C1"/>
<path d="M135.508 37.606C134.987 38.263 134.373 38.76 133.666 39.097C132.959 39.4339 132.185 39.6024 131.344 39.6024C130.368 39.6024 129.417 39.3497 128.491 38.8443C127.583 38.3388 126.582 37.5133 125.488 36.3677C123.755 36.3677 122.19 35.9802 120.793 35.2052C119.413 34.4134 118.328 33.3351 117.537 31.9705C116.746 30.6058 116.351 29.0812 116.351 27.3964C116.351 25.7117 116.746 24.187 117.537 22.8223C118.345 21.4577 119.447 20.3879 120.843 19.6129C122.24 18.8211 123.805 18.4251 125.538 18.4251C127.271 18.4251 128.836 18.8126 130.233 19.5876C131.63 20.3626 132.723 21.4324 133.514 22.7971C134.322 24.1617 134.726 25.6948 134.726 27.3964C134.726 28.9127 134.398 30.3026 133.742 31.5662C133.102 32.8129 132.21 33.849 131.066 34.6745C129.922 35.4832 128.618 36.0055 127.154 36.2413C128.601 37.7576 129.997 38.5157 131.344 38.5157C132.707 38.5157 133.868 37.9513 134.827 36.8226L135.508 37.606ZM117.638 27.3964C117.638 28.8453 117.983 30.1678 118.673 31.364C119.363 32.5433 120.305 33.4783 121.5 34.1691C122.711 34.843 124.057 35.1799 125.538 35.1799C127.019 35.1799 128.357 34.843 129.552 34.1691C130.746 33.4783 131.689 32.5433 132.379 31.364C133.068 30.1678 133.413 28.8453 133.413 27.3964C133.413 25.9475 133.068 24.6334 132.379 23.4541C131.689 22.2579 130.746 21.3229 129.552 20.649C128.357 19.9583 127.019 19.6129 125.538 19.6129C124.057 19.6129 122.711 19.9583 121.5 20.649C120.305 21.3229 119.363 22.2579 118.673 23.4541C117.983 24.6334 117.638 25.9475 117.638 27.3964Z" fill="#E1D3C1"/>
<path d="M138.142 36.3424C137.856 36.3424 137.604 36.2413 137.385 36.0392C137.183 35.8201 137.082 35.559 137.082 35.2557C137.082 34.9525 137.183 34.6998 137.385 34.4976C137.604 34.2954 137.856 34.1944 138.142 34.1944C138.429 34.1944 138.673 34.2954 138.874 34.4976C139.093 34.6998 139.203 34.9525 139.203 35.2557C139.203 35.559 139.093 35.8201 138.874 36.0392C138.673 36.2413 138.429 36.3424 138.142 36.3424Z" fill="#E1D3C1"/>
<path d="M155.543 31.2629H145.295L143.049 36.2413H141.66L149.788 18.5515H151.075L159.203 36.2413H157.815L155.543 31.2629ZM155.063 30.1762L150.419 19.9667L145.8 30.1762H155.063Z" fill="#E1D3C1"/>
<path d="M169.635 36.3677C167.902 36.3677 166.337 35.9802 164.94 35.2052C163.561 34.4302 162.467 33.3604 161.659 31.9958C160.868 30.6311 160.473 29.098 160.473 27.3964C160.473 25.6948 160.868 24.1617 161.659 22.7971C162.467 21.4324 163.561 20.3626 164.94 19.5876C166.337 18.8126 167.902 18.4251 169.635 18.4251C170.914 18.4251 172.092 18.6357 173.169 19.0569C174.246 19.4613 175.163 20.0678 175.92 20.8764L175.112 21.7104C173.699 20.3121 171.89 19.6129 169.686 19.6129C168.205 19.6129 166.859 19.9498 165.647 20.6237C164.436 21.2976 163.485 22.2327 162.795 23.4288C162.105 24.6082 161.76 25.9307 161.76 27.3964C161.76 28.8621 162.105 30.1931 162.795 31.3893C163.485 32.5686 164.436 33.4952 165.647 34.1691C166.859 34.843 168.205 35.1799 169.686 35.1799C171.873 35.1799 173.682 34.4723 175.112 33.0572L175.92 33.8911C175.163 34.6998 174.237 35.3147 173.144 35.7359C172.067 36.1571 170.897 36.3677 169.635 36.3677Z" fill="#E1D3C1"/>
<path d="M190.693 31.2629H180.445L178.199 36.2413H176.81L184.938 18.5515H186.225L194.353 36.2413H192.964L190.693 31.2629ZM190.213 30.1762L185.569 19.9667L180.95 30.1762H190.213Z" fill="#E1D3C1"/>
<path d="M197.56 18.5515H204.552C206.386 18.5515 208.01 18.9306 209.423 19.6887C210.854 20.4468 211.964 21.4998 212.755 22.8476C213.546 24.1785 213.942 25.6948 213.942 27.3964C213.942 29.098 213.546 30.6227 212.755 31.9705C211.964 33.3014 210.854 34.346 209.423 35.1041C208.01 35.8623 206.386 36.2413 204.552 36.2413H197.56V18.5515ZM204.451 35.0788C206.083 35.0788 207.522 34.7587 208.767 34.1185C210.012 33.4615 210.972 32.5517 211.645 31.3893C212.318 30.2268 212.654 28.8958 212.654 27.3964C212.654 25.897 212.318 24.566 211.645 23.4036C210.972 22.2411 210.012 21.3398 208.767 20.6995C207.522 20.0425 206.083 19.714 204.451 19.714H198.848V35.0788H204.451Z" fill="#E1D3C1"/>
<path d="M230.605 35.0788V36.2413H218.414V18.5515H230.226V19.714H219.701V26.6888H229.116V27.826H219.701V35.0788H230.605Z" fill="#E1D3C1"/>
<path d="M252.008 36.2413L251.982 21.1039L244.587 33.8911H243.956L236.56 21.1544V36.2413H235.298V18.5515H236.384L244.284 32.2232L252.184 18.5515H253.245L253.27 36.2413H252.008Z" fill="#E1D3C1"/>
<path d="M264.882 30.151V36.2413H263.595V30.151L256.477 18.5515H257.89L264.276 28.9632L270.662 18.5515H272L264.882 30.151Z" fill="#E1D3C1"/>
<path d="M110.245 45.718H110.782V52.6044H115.02V53.0888H110.245V45.718Z" fill="#E1D3C1"/>
<path d="M120.775 50.4669H116.053C116.067 50.8951 116.175 51.2777 116.379 51.6146C116.582 51.9445 116.855 52.2008 117.199 52.3833C117.549 52.5658 117.942 52.6571 118.377 52.6571C118.734 52.6571 119.064 52.5939 119.365 52.4675C119.674 52.3341 119.93 52.1411 120.133 51.8884L120.438 52.2359C120.2 52.5237 119.898 52.7448 119.534 52.8992C119.176 53.0537 118.787 53.1309 118.366 53.1309C117.819 53.1309 117.332 53.0116 116.904 52.7729C116.477 52.5342 116.14 52.2043 115.895 51.7831C115.656 51.3619 115.537 50.8811 115.537 50.3405C115.537 49.807 115.649 49.3297 115.874 48.9085C116.105 48.4803 116.421 48.1469 116.82 47.9082C117.22 47.6695 117.669 47.5502 118.166 47.5502C118.664 47.5502 119.11 47.6695 119.502 47.9082C119.902 48.1398 120.214 48.4663 120.438 48.8874C120.67 49.3086 120.785 49.786 120.785 50.3195L120.775 50.4669ZM118.166 48.0135C117.781 48.0135 117.434 48.1012 117.125 48.2767C116.817 48.4452 116.568 48.6874 116.379 49.0033C116.196 49.3121 116.091 49.6631 116.063 50.0562H120.27C120.249 49.6631 120.144 49.3121 119.954 49.0033C119.765 48.6944 119.516 48.4522 119.208 48.2767C118.899 48.1012 118.552 48.0135 118.166 48.0135Z" fill="#E1D3C1"/>
<path d="M124.109 47.5502C124.789 47.5502 125.311 47.7257 125.676 48.0767C126.041 48.4206 126.223 48.9296 126.223 49.6035V53.0888H125.718V52.1095C125.543 52.4324 125.287 52.6851 124.95 52.8677C124.614 53.0431 124.211 53.1309 123.741 53.1309C123.131 53.1309 122.647 52.987 122.289 52.6992C121.939 52.4114 121.764 52.0323 121.764 51.562C121.764 51.1057 121.925 50.7372 122.247 50.4564C122.577 50.1686 123.099 50.0246 123.814 50.0246H125.697V49.5824C125.697 49.07 125.557 48.6804 125.276 48.4136C125.003 48.1469 124.6 48.0135 124.067 48.0135C123.702 48.0135 123.352 48.0767 123.015 48.203C122.686 48.3294 122.405 48.4978 122.174 48.7084L121.911 48.3294C122.184 48.0837 122.514 47.8941 122.899 47.7608C123.285 47.6204 123.688 47.5502 124.109 47.5502ZM123.814 52.6992C124.27 52.6992 124.656 52.5939 124.971 52.3833C125.294 52.1727 125.536 51.8673 125.697 51.4672V50.4353H123.825C123.285 50.4353 122.892 50.5336 122.647 50.7301C122.409 50.9267 122.289 51.1969 122.289 51.5409C122.289 51.8989 122.423 52.1832 122.689 52.3938C122.956 52.5974 123.331 52.6992 123.814 52.6992Z" fill="#E1D3C1"/>
<path d="M128.894 48.7927C129.063 48.3925 129.325 48.0872 129.683 47.8766C130.041 47.659 130.475 47.5502 130.987 47.5502V48.0661L130.861 48.0556C130.251 48.0556 129.774 48.2486 129.431 48.6347C129.087 49.0138 128.915 49.5438 128.915 50.2247V53.0888H128.389V47.5923H128.894V48.7927Z" fill="#E1D3C1"/>
<path d="M135.118 47.5502C135.805 47.5502 136.348 47.7502 136.748 48.1504C137.148 48.5505 137.347 49.1261 137.347 49.8772V53.0888H136.822V49.9193C136.822 49.3016 136.664 48.8313 136.348 48.5084C136.04 48.1855 135.605 48.024 135.044 48.024C134.399 48.024 133.891 48.2171 133.519 48.6031C133.148 48.9892 132.962 49.5087 132.962 50.1615V53.0888H132.436V47.5923H132.941V48.7821C133.13 48.3961 133.411 48.0942 133.782 47.8766C134.161 47.659 134.606 47.5502 135.118 47.5502Z" fill="#E1D3C1"/>
<path d="M139.512 47.5923H140.038V53.0888H139.512V47.5923ZM139.775 46.255C139.656 46.255 139.554 46.2164 139.47 46.1392C139.386 46.055 139.344 45.9532 139.344 45.8338C139.344 45.7145 139.386 45.6127 139.47 45.5285C139.554 45.4442 139.656 45.4021 139.775 45.4021C139.895 45.4021 139.996 45.4442 140.08 45.5285C140.164 45.6057 140.207 45.704 140.207 45.8233C140.207 45.9426 140.164 46.0444 140.08 46.1287C139.996 46.2129 139.895 46.255 139.775 46.255Z" fill="#E1D3C1"/>
<path d="M144.936 47.5502C145.624 47.5502 146.167 47.7502 146.567 48.1504C146.966 48.5505 147.166 49.1261 147.166 49.8772V53.0888H146.64V49.9193C146.64 49.3016 146.482 48.8313 146.167 48.5084C145.858 48.1855 145.424 48.024 144.863 48.024C144.218 48.024 143.71 48.2171 143.338 48.6031C142.966 48.9892 142.78 49.5087 142.78 50.1615V53.0888H142.255V47.5923H142.759V48.7821C142.949 48.3961 143.229 48.0942 143.601 47.8766C143.979 47.659 144.425 47.5502 144.936 47.5502Z" fill="#E1D3C1"/>
<path d="M154.284 47.5923V52.4991C154.284 53.4117 154.063 54.0856 153.622 54.5208C153.18 54.956 152.514 55.1736 151.624 55.1736C151.119 55.1736 150.642 55.0964 150.193 54.942C149.744 54.7876 149.383 54.5735 149.11 54.2997L149.394 53.8996C149.667 54.1523 149.997 54.3488 150.382 54.4892C150.768 54.6296 151.178 54.6998 151.613 54.6998C152.342 54.6998 152.882 54.5243 153.233 54.1733C153.583 53.8294 153.758 53.2923 153.758 52.5623V51.6357C153.534 52.0358 153.222 52.3447 152.822 52.5623C152.423 52.7799 151.974 52.8887 151.476 52.8887C150.964 52.8887 150.498 52.7764 150.078 52.5518C149.664 52.3201 149.338 52.0007 149.099 51.5936C148.861 51.1864 148.742 50.7266 148.742 50.2142C148.742 49.7017 148.861 49.2419 149.099 48.8348C149.338 48.4276 149.664 48.1118 150.078 47.8871C150.498 47.6625 150.964 47.5502 151.476 47.5502C151.981 47.5502 152.437 47.6625 152.843 47.8871C153.25 48.1118 153.562 48.4276 153.779 48.8348V47.5923H154.284ZM151.518 52.4149C151.946 52.4149 152.332 52.3236 152.675 52.1411C153.019 51.9516 153.285 51.6918 153.474 51.3619C153.671 51.025 153.769 50.6424 153.769 50.2142C153.769 49.786 153.671 49.4069 153.474 49.077C153.285 48.747 153.019 48.4908 152.675 48.3083C152.332 48.1188 151.946 48.024 151.518 48.024C151.091 48.024 150.705 48.1188 150.361 48.3083C150.025 48.4908 149.758 48.747 149.562 49.077C149.373 49.4069 149.278 49.786 149.278 50.2142C149.278 50.6424 149.373 51.025 149.562 51.3619C149.758 51.6918 150.025 51.9516 150.361 52.1411C150.705 52.3236 151.091 52.4149 151.518 52.4149Z" fill="#E1D3C1"/>
<path d="M166.342 53.0888L166.331 46.7815L163.25 52.1095H162.987L159.905 46.8026V53.0888H159.38V45.718H159.832L163.124 51.4146L166.415 45.718H166.857L166.868 53.0888H166.342Z" fill="#E1D3C1"/>
<path d="M171.117 47.5502C171.797 47.5502 172.32 47.7257 172.684 48.0767C173.049 48.4206 173.231 48.9296 173.231 49.6035V53.0888H172.726V52.1095C172.551 52.4324 172.295 52.6851 171.958 52.8677C171.622 53.0431 171.219 53.1309 170.749 53.1309C170.139 53.1309 169.655 52.987 169.298 52.6992C168.947 52.4114 168.772 52.0323 168.772 51.562C168.772 51.1057 168.933 50.7372 169.256 50.4564C169.585 50.1686 170.107 50.0246 170.823 50.0246H172.705V49.5824C172.705 49.07 172.565 48.6804 172.285 48.4136C172.011 48.1469 171.608 48.0135 171.075 48.0135C170.71 48.0135 170.36 48.0767 170.023 48.203C169.694 48.3294 169.413 48.4978 169.182 48.7084L168.919 48.3294C169.193 48.0837 169.522 47.8941 169.908 47.7608C170.293 47.6204 170.696 47.5502 171.117 47.5502ZM170.823 52.6992C171.278 52.6992 171.664 52.5939 171.98 52.3833C172.302 52.1727 172.544 51.8673 172.705 51.4672V50.4353H170.833C170.293 50.4353 169.901 50.5336 169.655 50.7301C169.417 50.9267 169.298 51.1969 169.298 51.5409C169.298 51.8989 169.431 52.1832 169.697 52.3938C169.964 52.5974 170.339 52.6992 170.823 52.6992Z" fill="#E1D3C1"/>
<path d="M178.079 47.5502C178.767 47.5502 179.31 47.7502 179.71 48.1504C180.109 48.5505 180.309 49.1261 180.309 49.8772V53.0888H179.783V49.9193C179.783 49.3016 179.625 48.8313 179.31 48.5084C179.001 48.1855 178.567 48.024 178.006 48.024C177.361 48.024 176.852 48.2171 176.481 48.6031C176.109 48.9892 175.923 49.5087 175.923 50.1615V53.0888H175.398V47.5923H175.902V48.7821C176.092 48.3961 176.372 48.0942 176.744 47.8766C177.122 47.659 177.568 47.5502 178.079 47.5502Z" fill="#E1D3C1"/>
<path d="M184.325 47.5502C185.005 47.5502 185.527 47.7257 185.892 48.0767C186.257 48.4206 186.439 48.9296 186.439 49.6035V53.0888H185.934V52.1095C185.759 52.4324 185.503 52.6851 185.166 52.8677C184.83 53.0431 184.427 53.1309 183.957 53.1309C183.347 53.1309 182.863 52.987 182.506 52.6992C182.155 52.4114 181.98 52.0323 181.98 51.562C181.98 51.1057 182.141 50.7372 182.464 50.4564C182.793 50.1686 183.315 50.0246 184.031 50.0246H185.913V49.5824C185.913 49.07 185.773 48.6804 185.492 48.4136C185.219 48.1469 184.816 48.0135 184.283 48.0135C183.918 48.0135 183.568 48.0767 183.231 48.203C182.902 48.3294 182.621 48.4978 182.39 48.7084L182.127 48.3294C182.4 48.0837 182.73 47.8941 183.116 47.7608C183.501 47.6204 183.904 47.5502 184.325 47.5502ZM184.031 52.6992C184.486 52.6992 184.872 52.5939 185.187 52.3833C185.51 52.1727 185.752 51.8673 185.913 51.4672V50.4353H184.041C183.501 50.4353 183.109 50.5336 182.863 50.7301C182.625 50.9267 182.506 51.1969 182.506 51.5409C182.506 51.8989 182.639 52.1832 182.905 52.3938C183.172 52.5974 183.547 52.6992 184.031 52.6992Z" fill="#E1D3C1"/>
<path d="M193.559 47.5923V52.4991C193.559 53.4117 193.338 54.0856 192.896 54.5208C192.455 54.956 191.788 55.1736 190.898 55.1736C190.393 55.1736 189.916 55.0964 189.468 54.942C189.019 54.7876 188.658 54.5735 188.384 54.2997L188.668 53.8996C188.942 54.1523 189.271 54.3488 189.657 54.4892C190.043 54.6296 190.453 54.6998 190.887 54.6998C191.617 54.6998 192.157 54.5243 192.507 54.1733C192.858 53.8294 193.033 53.2923 193.033 52.5623V51.6357C192.809 52.0358 192.497 52.3447 192.097 52.5623C191.697 52.7799 191.249 52.8887 190.751 52.8887C190.239 52.8887 189.773 52.7764 189.352 52.5518C188.938 52.3201 188.612 52.0007 188.374 51.5936C188.136 51.1864 188.016 50.7266 188.016 50.2142C188.016 49.7017 188.136 49.2419 188.374 48.8348C188.612 48.4276 188.938 48.1118 189.352 47.8871C189.773 47.6625 190.239 47.5502 190.751 47.5502C191.256 47.5502 191.711 47.6625 192.118 47.8871C192.525 48.1118 192.837 48.4276 193.054 48.8348V47.5923H193.559ZM190.793 52.4149C191.221 52.4149 191.606 52.3236 191.95 52.1411C192.293 51.9516 192.56 51.6918 192.749 51.3619C192.945 51.025 193.043 50.6424 193.043 50.2142C193.043 49.786 192.945 49.4069 192.749 49.077C192.56 48.747 192.293 48.4908 191.95 48.3083C191.606 48.1188 191.221 48.024 190.793 48.024C190.365 48.024 189.98 48.1188 189.636 48.3083C189.299 48.4908 189.033 48.747 188.837 49.077C188.647 49.4069 188.553 49.786 188.553 50.2142C188.553 50.6424 188.647 51.025 188.837 51.3619C189.033 51.6918 189.299 51.9516 189.636 52.1411C189.98 52.3236 190.365 52.4149 190.793 52.4149Z" fill="#E1D3C1"/>
<path d="M200.423 50.4669H195.701C195.715 50.8951 195.823 51.2777 196.027 51.6146C196.23 51.9445 196.503 52.2008 196.847 52.3833C197.197 52.5658 197.59 52.6571 198.025 52.6571C198.382 52.6571 198.712 52.5939 199.013 52.4675C199.322 52.3341 199.578 52.1411 199.781 51.8884L200.086 52.2359C199.848 52.5237 199.546 52.7448 199.182 52.8992C198.824 53.0537 198.435 53.1309 198.014 53.1309C197.467 53.1309 196.98 53.0116 196.552 52.7729C196.125 52.5342 195.788 52.2043 195.543 51.7831C195.304 51.3619 195.185 50.8811 195.185 50.3405C195.185 49.807 195.297 49.3297 195.522 48.9085C195.753 48.4803 196.069 48.1469 196.468 47.9082C196.868 47.6695 197.317 47.5502 197.814 47.5502C198.312 47.5502 198.757 47.6695 199.15 47.9082C199.55 48.1398 199.862 48.4663 200.086 48.8874C200.317 49.3086 200.433 49.786 200.433 50.3195L200.423 50.4669ZM197.814 48.0135C197.429 48.0135 197.082 48.1012 196.773 48.2767C196.465 48.4452 196.216 48.6874 196.027 49.0033C195.844 49.3121 195.739 49.6631 195.711 50.0562H199.918C199.897 49.6631 199.792 49.3121 199.602 49.0033C199.413 48.6944 199.164 48.4522 198.856 48.2767C198.547 48.1012 198.2 48.0135 197.814 48.0135Z" fill="#E1D3C1"/>
<path d="M208.896 47.5502C209.576 47.5502 210.109 47.7502 210.495 48.1504C210.887 48.5505 211.084 49.1261 211.084 49.8772V53.0888H210.558V49.9193C210.558 49.3016 210.407 48.8313 210.105 48.5084C209.804 48.1855 209.383 48.024 208.843 48.024C208.226 48.024 207.736 48.2171 207.371 48.6031C207.013 48.9892 206.835 49.5087 206.835 50.1615V53.0888H206.309V49.9193C206.309 49.3016 206.158 48.8313 205.857 48.5084C205.555 48.1855 205.134 48.024 204.595 48.024C203.978 48.024 203.487 48.2171 203.122 48.6031C202.765 48.9892 202.586 49.5087 202.586 50.1615V53.0888H202.06V47.5923H202.565V48.7716C202.747 48.3855 203.017 48.0872 203.375 47.8766C203.739 47.659 204.17 47.5502 204.668 47.5502C205.166 47.5502 205.587 47.6625 205.93 47.8871C206.281 48.1118 206.53 48.4417 206.677 48.8769C206.859 48.4698 207.143 48.1469 207.529 47.9082C207.921 47.6695 208.377 47.5502 208.896 47.5502Z" fill="#E1D3C1"/>
<path d="M217.903 50.4669H213.181C213.195 50.8951 213.304 51.2777 213.507 51.6146C213.71 51.9445 213.984 52.2008 214.327 52.3833C214.678 52.5658 215.07 52.6571 215.505 52.6571C215.863 52.6571 216.192 52.5939 216.494 52.4675C216.802 52.3341 217.058 52.1411 217.262 51.8884L217.567 52.2359C217.328 52.5237 217.027 52.7448 216.662 52.8992C216.304 53.0537 215.915 53.1309 215.495 53.1309C214.948 53.1309 214.461 53.0116 214.033 52.7729C213.605 52.5342 213.269 52.2043 213.023 51.7831C212.785 51.3619 212.666 50.8811 212.666 50.3405C212.666 49.807 212.778 49.3297 213.002 48.9085C213.234 48.4803 213.549 48.1469 213.949 47.9082C214.348 47.6695 214.797 47.5502 215.295 47.5502C215.793 47.5502 216.238 47.6695 216.631 47.9082C217.03 48.1398 217.342 48.4663 217.567 48.8874C217.798 49.3086 217.914 49.786 217.914 50.3195L217.903 50.4669ZM215.295 48.0135C214.909 48.0135 214.562 48.1012 214.254 48.2767C213.945 48.4452 213.696 48.6874 213.507 49.0033C213.325 49.3121 213.219 49.6631 213.191 50.0562H217.398C217.377 49.6631 217.272 49.3121 217.083 49.0033C216.893 48.6944 216.645 48.4522 216.336 48.2767C216.028 48.1012 215.68 48.0135 215.295 48.0135Z" fill="#E1D3C1"/>
<path d="M222.222 47.5502C222.909 47.5502 223.453 47.7502 223.852 48.1504C224.252 48.5505 224.452 49.1261 224.452 49.8772V53.0888H223.926V49.9193C223.926 49.3016 223.768 48.8313 223.453 48.5084C223.144 48.1855 222.709 48.024 222.149 48.024C221.504 48.024 220.995 48.2171 220.624 48.6031C220.252 48.9892 220.066 49.5087 220.066 50.1615V53.0888H219.54V47.5923H220.045V48.7821C220.234 48.3961 220.515 48.0942 220.887 47.8766C221.265 47.659 221.71 47.5502 222.222 47.5502Z" fill="#E1D3C1"/>
<path d="M229.341 52.7413C229.207 52.8676 229.039 52.9659 228.836 53.0361C228.64 53.0993 228.433 53.1309 228.215 53.1309C227.739 53.1309 227.37 53.001 227.111 52.7413C226.852 52.4745 226.722 52.106 226.722 51.6357V48.0451H225.712V47.5923H226.722V46.3919H227.248V47.5923H228.994V48.0451H227.248V51.583C227.248 51.941 227.332 52.2148 227.5 52.4043C227.675 52.5869 227.931 52.6781 228.268 52.6781C228.611 52.6781 228.895 52.5763 229.12 52.3728L229.341 52.7413Z" fill="#E1D3C1"/>
<path d="M235.612 53.1414C235.072 53.1414 234.556 53.0502 234.066 52.8677C233.582 52.6781 233.203 52.4359 232.93 52.1411L233.172 51.741C233.431 52.0147 233.778 52.2394 234.213 52.4149C234.655 52.5834 235.117 52.6676 235.601 52.6676C236.302 52.6676 236.832 52.5342 237.189 52.2675C237.547 52.0007 237.726 51.6532 237.726 51.225C237.726 50.8951 237.631 50.6319 237.442 50.4353C237.252 50.2387 237.017 50.0878 236.737 49.9825C236.457 49.8772 236.078 49.7684 235.601 49.6561C235.061 49.5227 234.627 49.3929 234.297 49.2665C233.975 49.1402 233.698 48.9471 233.466 48.6874C233.242 48.4206 233.13 48.0661 233.13 47.6239C233.13 47.2659 233.224 46.9395 233.414 46.6446C233.603 46.3428 233.89 46.1041 234.276 45.9286C234.669 45.7531 235.156 45.6654 235.738 45.6654C236.145 45.6654 236.544 45.725 236.937 45.8444C237.329 45.9637 237.67 46.1252 237.957 46.3287L237.757 46.7605C237.463 46.5569 237.137 46.4024 236.779 46.2971C236.428 46.1918 236.081 46.1392 235.738 46.1392C235.058 46.1392 234.542 46.2761 234.192 46.5499C233.841 46.8236 233.666 47.1781 233.666 47.6134C233.666 47.9433 233.761 48.2065 233.95 48.4031C234.139 48.5996 234.374 48.7506 234.655 48.8559C234.935 48.9611 235.317 49.0735 235.801 49.1928C236.341 49.3262 236.772 49.456 237.095 49.5824C237.417 49.7088 237.691 49.9018 237.915 50.1615C238.146 50.4142 238.262 50.7582 238.262 51.1934C238.262 51.5514 238.164 51.8779 237.967 52.1727C237.778 52.4675 237.484 52.7027 237.084 52.8782C236.684 53.0537 236.194 53.1414 235.612 53.1414Z" fill="#E1D3C1"/>
<path d="M244.221 47.5923L241.402 53.8364C241.192 54.3207 240.947 54.6647 240.666 54.8683C240.393 55.0719 240.067 55.1736 239.688 55.1736C239.436 55.1736 239.197 55.1315 238.973 55.0473C238.756 54.9631 238.57 54.8402 238.416 54.6788L238.679 54.2786C238.959 54.5664 239.299 54.7103 239.699 54.7103C239.965 54.7103 240.193 54.6366 240.382 54.4892C240.572 54.3418 240.747 54.0891 240.908 53.7311L241.203 53.0677L238.731 47.5923H239.289L241.487 52.5096L243.685 47.5923H244.221Z" fill="#E1D3C1"/>
<path d="M246.697 53.1309C246.256 53.1309 245.835 53.0642 245.435 52.9308C245.036 52.7975 244.724 52.629 244.499 52.4254L244.741 52.0042C244.966 52.1938 245.253 52.3517 245.604 52.4781C245.961 52.6044 246.333 52.6676 246.718 52.6676C247.272 52.6676 247.679 52.5763 247.938 52.3938C248.205 52.2113 248.338 51.9586 248.338 51.6357C248.338 51.404 248.264 51.2215 248.117 51.0881C247.977 50.9548 247.802 50.8565 247.591 50.7933C247.381 50.7301 247.09 50.6634 246.718 50.5932C246.284 50.516 245.933 50.4318 245.667 50.3405C245.4 50.2493 245.172 50.1019 244.983 49.8983C244.794 49.6947 244.699 49.4139 244.699 49.0559C244.699 48.6207 244.878 48.2627 245.235 47.9819C245.6 47.6941 246.115 47.5502 246.781 47.5502C247.132 47.5502 247.479 47.5993 247.823 47.6976C248.166 47.7959 248.447 47.9257 248.664 48.0872L248.422 48.5084C248.198 48.3469 247.942 48.2241 247.654 48.1398C247.367 48.0556 247.072 48.0135 246.771 48.0135C246.259 48.0135 245.874 48.1082 245.614 48.2978C245.355 48.4873 245.225 48.7365 245.225 49.0454C245.225 49.2911 245.299 49.4841 245.446 49.6245C245.593 49.7579 245.772 49.8597 245.982 49.9299C246.2 49.9931 246.501 50.0633 246.887 50.1405C247.314 50.2177 247.658 50.3019 247.917 50.3932C248.184 50.4774 248.408 50.6178 248.59 50.8144C248.773 51.0109 248.864 51.2812 248.864 51.6252C248.864 52.0814 248.675 52.4465 248.296 52.7202C247.917 52.994 247.384 53.1309 246.697 53.1309Z" fill="#E1D3C1"/>
<path d="M253.055 52.7413C252.922 52.8676 252.754 52.9659 252.55 53.0361C252.354 53.0993 252.147 53.1309 251.93 53.1309C251.453 53.1309 251.085 53.001 250.826 52.7413C250.566 52.4745 250.437 52.106 250.437 51.6357V48.0451H249.427V47.5923H250.437V46.3919H250.962V47.5923H252.708V48.0451H250.962V51.583C250.962 51.941 251.047 52.2148 251.215 52.4043C251.39 52.5869 251.646 52.6781 251.983 52.6781C252.326 52.6781 252.61 52.5763 252.834 52.3728L253.055 52.7413Z" fill="#E1D3C1"/>
<path d="M258.965 50.4669H254.242C254.257 50.8951 254.365 51.2777 254.569 51.6146C254.772 51.9445 255.045 52.2008 255.389 52.3833C255.739 52.5658 256.132 52.6571 256.567 52.6571C256.924 52.6571 257.254 52.5939 257.555 52.4675C257.864 52.3341 258.12 52.1411 258.323 51.8884L258.628 52.2359C258.39 52.5237 258.088 52.7448 257.724 52.8992C257.366 53.0537 256.977 53.1309 256.556 53.1309C256.009 53.1309 255.522 53.0116 255.094 52.7729C254.667 52.5342 254.33 52.2043 254.085 51.7831C253.846 51.3619 253.727 50.8811 253.727 50.3405C253.727 49.807 253.839 49.3297 254.064 48.9085C254.295 48.4803 254.611 48.1469 255.01 47.9082C255.41 47.6695 255.859 47.5502 256.356 47.5502C256.854 47.5502 257.299 47.6695 257.692 47.9082C258.092 48.1398 258.404 48.4663 258.628 48.8874C258.859 49.3086 258.975 49.786 258.975 50.3195L258.965 50.4669ZM256.356 48.0135C255.971 48.0135 255.624 48.1012 255.315 48.2767C255.007 48.4452 254.758 48.6874 254.569 49.0033C254.386 49.3121 254.281 49.6631 254.253 50.0562H258.46C258.439 49.6631 258.334 49.3121 258.144 49.0033C257.955 48.6944 257.706 48.4522 257.398 48.2767C257.089 48.1012 256.742 48.0135 256.356 48.0135Z" fill="#E1D3C1"/>
<path d="M267.438 47.5502C268.118 47.5502 268.651 47.7502 269.037 48.1504C269.429 48.5505 269.626 49.1261 269.626 49.8772V53.0888H269.1V49.9193C269.1 49.3016 268.949 48.8313 268.647 48.5084C268.346 48.1855 267.925 48.024 267.385 48.024C266.768 48.024 266.278 48.2171 265.913 48.6031C265.555 48.9892 265.377 49.5087 265.377 50.1615V53.0888H264.851V49.9193C264.851 49.3016 264.7 48.8313 264.399 48.5084C264.097 48.1855 263.676 48.024 263.137 48.024C262.52 48.024 262.029 48.2171 261.664 48.6031C261.307 48.9892 261.128 49.5087 261.128 50.1615V53.0888H260.602V47.5923H261.107V48.7716C261.289 48.3855 261.559 48.0872 261.917 47.8766C262.281 47.659 262.712 47.5502 263.21 47.5502C263.708 47.5502 264.129 47.6625 264.472 47.8871C264.823 48.1118 265.072 48.4417 265.219 48.8769C265.401 48.4698 265.685 48.1469 266.071 47.9082C266.463 47.6695 266.919 47.5502 267.438 47.5502Z" fill="#E1D3C1"/>
</svg>