<svg width="37" height="37" viewBox="0 0 37 37" fill="none" xmlns="http://www.w3.org/2000/svg">
<g clip-path="url(#clip0_4333_5550)">
<path d="M31.3221 6.73676C28.9639 5.65472 26.435 4.85749 23.7909 4.40084C23.7428 4.39203 23.6947 4.41407 23.6699 4.45808C23.3446 5.03656 22.9844 5.79116 22.7321 6.38432C19.8882 5.95853 17.0589 5.95853 14.2733 6.38432C14.021 5.77801 13.6476 5.03656 13.3209 4.45808C13.2961 4.41551 13.248 4.39347 13.1999 4.40084C10.5573 4.85597 8.0284 5.65321 5.66864 6.73676C5.64819 6.74557 5.6307 6.76024 5.61907 6.77932C0.822365 13.9455 -0.491713 20.9356 0.152896 27.839C0.155787 27.8728 0.174793 27.9051 0.201025 27.9256C3.36575 30.2497 6.43141 31.6607 9.44004 32.5959C9.48817 32.6106 9.53919 32.593 9.56983 32.5534C10.2815 31.5815 10.9159 30.5567 11.4599 29.479C11.492 29.4159 11.4613 29.341 11.3957 29.316C10.3894 28.9343 9.43122 28.4688 8.50948 27.9404C8.43656 27.8978 8.43071 27.7935 8.49784 27.7436C8.6918 27.5983 8.88584 27.447 9.07105 27.2943C9.10458 27.2664 9.15127 27.2606 9.19065 27.2781C15.2459 30.0428 21.8015 30.0428 27.7853 27.2781C27.8247 27.259 27.8714 27.265 27.9064 27.2928C28.0917 27.4455 28.2856 27.5982 28.481 27.7435C28.5481 27.7934 28.5437 27.8977 28.4708 27.9403C27.5491 28.4791 26.5909 28.9342 25.5832 29.3145C25.5176 29.3394 25.4884 29.4158 25.5205 29.4789C26.0762 30.5551 26.7106 31.5799 27.4091 32.5518C27.4383 32.593 27.4908 32.6106 27.5389 32.5959C30.5621 31.6607 33.6278 30.2497 36.7925 27.9255C36.8203 27.905 36.8377 27.8742 36.8406 27.8404C37.6121 19.8593 35.5485 12.9265 31.3701 6.78069C31.36 6.76024 31.3425 6.74557 31.3221 6.73676ZM12.3643 23.6356C10.5412 23.6356 9.03904 21.9619 9.03904 19.9064C9.03904 17.8508 10.512 16.1772 12.3643 16.1772C14.231 16.1772 15.7186 17.8656 15.6894 19.9064C15.6894 21.9619 14.2164 23.6356 12.3643 23.6356ZM24.6586 23.6356C22.8356 23.6356 21.3334 21.9619 21.3334 19.9064C21.3334 17.8508 22.8064 16.1772 24.6586 16.1772C26.5254 16.1772 28.013 17.8656 27.9838 19.9064C27.9838 21.9619 26.5254 23.6356 24.6586 23.6356Z" fill="white"/>
</g>
<defs>
<clipPath id="clip0_4333_5550">
<rect width="37" height="37" fill="white"/>
</clipPath>
</defs>
</svg>
