<svg width="37" height="37" viewBox="0 0 37 37" fill="none" xmlns="http://www.w3.org/2000/svg">
<g clip-path="url(#clip0_4333_5538)">
<g clip-path="url(#clip1_4333_5538)">
<path d="M26.789 0H10.2104C4.58038 0 0 4.5806 0 10.2106V26.7892C0 32.4194 4.58038 36.9998 10.2104 36.9998H26.789C32.4194 36.9998 36.9998 32.4192 36.9998 26.7892V10.2106C37 4.5806 32.4194 0 26.789 0ZM33.7172 26.7892C33.7172 30.6093 30.6093 33.717 26.7892 33.717H10.2104C6.39052 33.7172 3.2828 30.6093 3.2828 26.7892V10.2106C3.2828 6.39074 6.39052 3.2828 10.2104 3.2828H26.789C30.609 3.2828 33.717 6.39074 33.717 10.2106V26.7892H33.7172Z" fill="white"/>
<path d="M18.4999 8.96631C13.2428 8.96631 8.966 13.2431 8.966 18.5002C8.966 23.7571 13.2428 28.0337 18.4999 28.0337C23.757 28.0337 28.0338 23.7571 28.0338 18.5002C28.0338 13.2431 23.757 8.96631 18.4999 8.96631ZM18.4999 24.7507C15.0532 24.7507 12.2488 21.9467 12.2488 18.5C12.2488 15.0531 15.053 12.2489 18.4999 12.2489C21.9468 12.2489 24.751 15.0531 24.751 18.5C24.751 21.9467 21.9466 24.7507 18.4999 24.7507Z" fill="white"/>
<path d="M28.4336 6.18286C27.8011 6.18286 27.1798 6.43892 26.7331 6.88757C26.2843 7.33403 26.0262 7.95557 26.0262 8.59025C26.0262 9.22295 26.2845 9.84428 26.7331 10.2929C27.1796 10.7394 27.8011 10.9976 28.4336 10.9976C29.0683 10.9976 29.6877 10.7394 30.1363 10.2929C30.585 9.84428 30.841 9.22273 30.841 8.59025C30.841 7.95557 30.585 7.33403 30.1363 6.88757C29.6899 6.43892 29.0683 6.18286 28.4336 6.18286Z" fill="white"/>
</g>
</g>
<defs>
<clipPath id="clip0_4333_5538">
<rect width="37" height="37" fill="white"/>
</clipPath>
<clipPath id="clip1_4333_5538">
<rect width="37" height="37" fill="white"/>
</clipPath>
</defs>
</svg>
