<svg width="37" height="37" viewBox="0 0 37 37" fill="none" xmlns="http://www.w3.org/2000/svg">
<path d="M32.4588 4.84637C31.9038 4.37573 31.0321 4.30839 30.1307 4.67025H30.1293C29.1813 5.05061 3.29612 16.1536 2.24236 16.6072C2.0507 16.6738 0.376823 17.2983 0.549243 18.6895C0.703163 19.9438 2.04848 20.4633 2.21276 20.5233L8.79358 22.7766C9.23018 24.2299 10.8397 29.592 11.1956 30.7375C11.4176 31.4516 11.7795 32.3899 12.4137 32.583C12.9701 32.7976 13.5237 32.6015 13.8818 32.3203L17.9052 28.5885L24.4002 33.6538L24.5548 33.7463C24.9959 33.9417 25.4184 34.0394 25.8217 34.0394C26.1333 34.0394 26.4322 33.9809 26.7179 33.864C27.691 33.4644 28.0802 32.5372 28.1209 32.4321L32.9723 7.21511C33.2683 5.86831 32.8569 5.18307 32.4588 4.84637ZM14.5974 23.6779L12.3774 29.5979L10.1574 22.1979L27.1774 9.61789L14.5974 23.6779Z" fill="white"/>
</svg>
