<svg width="41" height="41" viewBox="0 0 41 41" fill="none" xmlns="http://www.w3.org/2000/svg">
<path d="M38.2742 10.7157C37.8385 9.09576 36.5613 7.8188 34.9416 7.38261C31.9827 6.573 20.1466 6.573 20.1466 6.573C20.1466 6.573 8.31098 6.573 5.35202 7.35191C3.76349 7.78765 2.45514 9.096 2.01941 10.7157C1.24072 13.6744 1.24072 19.8104 1.24072 19.8104C1.24072 19.8104 1.24072 25.9774 2.01941 28.9052C2.4556 30.5249 3.73233 31.8018 5.35225 32.238C8.34213 33.0479 20.147 33.0479 20.147 33.0479C20.147 33.0479 31.9827 33.0479 34.9416 32.2689C36.5615 31.833 37.8385 30.556 38.2747 28.9363C39.0531 25.9774 39.0531 19.8416 39.0531 19.8416C39.0531 19.8416 39.0843 13.6744 38.2742 10.7157ZM16.3782 25.4791V14.1418L26.2205 19.8104L16.3782 25.4791Z" fill="white"/>
</svg>
