<svg width="394pt" height="43pt" viewBox="0 0 394 43" xmlns="http://www.w3.org/2000/svg"><g id="fontsvg1732651897671" stroke-linecap="round" fill-rule="evenodd" fill="#21693c"><path d="M 248.438 42.188 L 229.688 42.188 L 229.688 37.5 L 225 37.5 L 225 28.125 L 234.375 28.125 L 234.375 37.5 L 243.75 37.5 L 243.75 28.125 L 239.063 28.125 L 239.063 23.438 L 234.375 23.438 L 234.375 18.75 L 229.688 18.75 L 229.688 14.063 L 225 14.063 L 225 4.688 L 229.688 4.688 L 229.688 0 L 248.438 0 L 248.438 4.688 L 253.125 4.688 L 253.125 14.063 L 243.75 14.063 L 243.75 4.688 L 234.375 4.688 L 234.375 14.063 L 239.063 14.063 L 239.063 18.75 L 243.75 18.75 L 243.75 23.438 L 248.438 23.438 L 248.438 28.125 L 253.125 28.125 L 253.125 37.5 L 248.438 37.5 L 248.438 42.188 Z M 121.875 42.188 L 112.5 42.188 L 112.5 0 L 121.875 0 L 121.875 18.75 L 126.563 18.75 L 126.563 14.063 L 131.25 14.063 L 131.25 0 L 140.625 0 L 140.625 14.063 L 135.938 14.063 L 135.938 18.75 L 131.25 18.75 L 131.25 23.438 L 135.938 23.438 L 135.938 28.125 L 140.625 28.125 L 140.625 42.188 L 131.25 42.188 L 131.25 28.125 L 126.563 28.125 L 126.563 23.438 L 121.875 23.438 L 121.875 42.188 Z M 84.375 42.188 L 75 42.188 L 75 0 L 84.375 0 L 84.375 9.375 L 89.063 9.375 L 89.063 14.063 L 93.75 14.063 L 93.75 0 L 103.125 0 L 103.125 42.188 L 93.75 42.188 L 93.75 23.438 L 89.063 23.438 L 89.063 18.75 L 84.375 18.75 L 84.375 42.188 Z M 196.875 42.188 L 187.5 42.188 L 187.5 0 L 196.875 0 L 196.875 9.375 L 201.563 9.375 L 201.563 14.063 L 206.25 14.063 L 206.25 0 L 215.625 0 L 215.625 42.188 L 206.25 42.188 L 206.25 23.438 L 201.563 23.438 L 201.563 18.75 L 196.875 18.75 L 196.875 42.188 Z M 375 42.188 L 365.625 42.188 L 365.625 0 L 375 0 L 375 9.375 L 379.688 9.375 L 379.688 14.063 L 384.375 14.063 L 384.375 0 L 393.75 0 L 393.75 42.188 L 384.375 42.188 L 384.375 23.438 L 379.688 23.438 L 379.688 18.75 L 375 18.75 L 375 42.188 Z M 178.125 42.188 L 150 42.188 L 150 0 L 178.125 0 L 178.125 4.688 L 159.375 4.688 L 159.375 18.75 L 173.438 18.75 L 173.438 23.438 L 159.375 23.438 L 159.375 37.5 L 178.125 37.5 L 178.125 42.188 Z M 46.875 42.188 L 37.5 42.188 L 37.5 4.688 L 42.188 4.688 L 42.188 0 L 60.938 0 L 60.938 4.688 L 65.625 4.688 L 65.625 42.188 L 56.25 42.188 L 56.25 28.125 L 46.875 28.125 L 46.875 42.188 Z M 309.375 42.188 L 300 42.188 L 300 4.688 L 304.688 4.688 L 304.688 0 L 323.438 0 L 323.438 4.688 L 328.125 4.688 L 328.125 42.188 L 318.75 42.188 L 318.75 28.125 L 309.375 28.125 L 309.375 42.188 Z M 18.75 42.188 L 9.375 42.188 L 9.375 4.688 L 0 4.688 L 0 0 L 28.125 0 L 28.125 4.688 L 18.75 4.688 L 18.75 42.188 Z M 281.25 42.188 L 271.875 42.188 L 271.875 4.688 L 262.5 4.688 L 262.5 0 L 290.625 0 L 290.625 4.688 L 281.25 4.688 L 281.25 42.188 Z M 356.25 42.188 L 337.5 42.188 L 337.5 37.5 L 342.188 37.5 L 342.188 4.688 L 337.5 4.688 L 337.5 0 L 356.25 0 L 356.25 4.688 L 351.563 4.688 L 351.563 37.5 L 356.25 37.5 L 356.25 42.188 Z M 46.875 23.438 L 56.25 23.438 L 56.25 4.688 L 46.875 4.688 L 46.875 23.438 Z M 309.375 23.438 L 318.75 23.438 L 318.75 4.688 L 309.375 4.688 L 309.375 23.438 Z" vector-effect="non-scaling-stroke"/></g></svg>