<svg width="52" height="52" viewBox="0 0 52 52" fill="none" xmlns="http://www.w3.org/2000/svg">
<path fill-rule="evenodd" clip-rule="evenodd" d="M26 49.8333C12.8372 49.8333 2.16663 39.1628 2.16663 26C2.16663 12.8372 12.8372 2.16666 26 2.16666C39.1627 2.16666 49.8333 12.8372 49.8333 26C49.8333 39.1628 39.1627 49.8333 26 49.8333ZM26 45.5C36.7695 45.5 45.5 36.7695 45.5 26C45.5 15.2304 36.7695 6.49999 26 6.49999C15.2304 6.49999 6.49996 15.2304 6.49996 26C6.49996 36.7695 15.2304 45.5 26 45.5ZM19.5 26C19.5 27.1966 18.5299 28.1667 17.3333 28.1667C16.1367 28.1667 15.1666 27.1966 15.1666 26C15.1666 24.8034 16.1367 23.8333 17.3333 23.8333C18.5299 23.8333 19.5 24.8034 19.5 26ZM26 28.1667C27.1966 28.1667 28.1666 27.1966 28.1666 26C28.1666 24.8034 27.1966 23.8333 26 23.8333C24.8033 23.8333 23.8333 24.8034 23.8333 26C23.8333 27.1966 24.8033 28.1667 26 28.1667ZM36.8333 26C36.8333 27.1966 35.8632 28.1667 34.6666 28.1667C33.47 28.1667 32.5 27.1966 32.5 26C32.5 24.8034 33.47 23.8333 34.6666 23.8333C35.8632 23.8333 36.8333 24.8034 36.8333 26Z" fill="black"/>
</svg>
